<svg width="24" height="24" viewBox="0 0 24 24" fill="none" xmlns="http://www.w3.org/2000/svg">
<path d="M11.9997 2C9.67522 2.00824 7.42618 2.82602 5.63928 4.31277C3.85237 5.79952 2.63923 7.86234 2.20842 10.1466C1.7776 12.4309 2.15603 14.7939 3.27864 16.8293C4.40125 18.8648 6.19791 20.4456 8.35974 21.3C8.25974 20.51 8.18974 19.3 8.38974 18.43L9.55974 13.46C9.55974 13.46 9.25974 12.86 9.25974 11.98C9.25974 10.59 10.0697 9.56 11.0797 9.56C11.9297 9.56 12.3497 10.2 12.3497 10.96C12.3497 11.82 11.7997 13.1 11.5097 14.29C11.2697 15.29 12.0097 16.1 12.9997 16.1C14.7797 16.1 16.1397 14.23 16.1397 11.53C16.1397 9.13 14.4197 7.47 11.9597 7.47C11.3753 7.44433 10.7918 7.53734 10.2443 7.74342C9.69684 7.94951 9.19681 8.26438 8.77439 8.66904C8.35197 9.07371 8.01592 9.55977 7.78653 10.0979C7.55715 10.636 7.43917 11.215 7.43974 11.8C7.43974 12.66 7.76974 13.58 8.17974 14.08C8.25974 14.18 8.26974 14.27 8.23974 14.37L7.95974 15.5C7.91974 15.68 7.80974 15.73 7.62974 15.64C6.36974 15.05 5.58974 13.24 5.58974 11.76C5.58974 8.61 7.88974 5.72 12.2097 5.72C15.6697 5.72 18.3797 8.18 18.3797 11.49C18.3797 14.94 16.1997 17.71 13.1797 17.71C12.1797 17.71 11.2197 17.18 10.8997 16.56L10.2697 18.93C9.9746 19.8577 9.55763 20.7421 9.02974 21.56C10.4036 21.9816 11.8521 22.1021 13.2767 21.9133C14.7013 21.7245 16.0685 21.2309 17.2851 20.4661C18.5018 19.7014 19.5393 18.6833 20.327 17.4814C21.1147 16.2795 21.6341 14.9219 21.8499 13.5011C22.0656 12.0804 21.9726 10.6298 21.5771 9.24822C21.1817 7.86664 20.4931 6.58652 19.5584 5.49506C18.6236 4.40359 17.4645 3.52642 16.1602 2.9233C14.8558 2.32017 13.4368 2.00525 11.9997 2Z" fill="white"/>
</svg>
